#!OML:ASF H:\Terrain\Patient Classification 1\Walking\liu\liu.ASF
:FULLY-SPECIFIED
:DEGREES
111
root 9.44837 16.6511 -9.99123 6.46394 6.41748 4.28776
lowerback -4.79126 -3.25408 -6.68875
upperback -1.26223 -4.03033 1.16876
thorax 1.92217 -2.04623 4.68463
lowerneck -21.3328 -2.85148 -12.1977
upperneck 25.594 -3.38649 12.1127
head 12.4428 -1.12929 6.20195
rclavicle -8.98258e-015 9.93923e-015
rhumerus -46.9046 14.5552 -89.3291
rradius 33.5645
rwrist -16.6756
rhand -22.3618 -33.5901
rfingers 7.12502
rthumb 4.05941 -63.5312
lclavicle -8.98258e-015 9.93923e-015
lhumerus -11.0722 -22.0639 88.1273
lradius 33.1034
lwrist 7.21621
lhand -15.7564 -25.7232
lfingers 7.12502
lthumb 10.4351 3.99788
rfemur -36.6576 -0.937228 15.9869
rtibia 34.7547
rfoot -15.6265 -7.85932
rtoes -8.22479
lfemur 5.93106 2.58012 -28.2034
ltibia 3.09372
lfoot -13.0122 -1.82302
ltoes -2.81402
112
root 9.44808 16.6366 -9.78986 6.68878 6.45404 4.25948
lowerback -5.14371 -3.293 -6.57221
upperback -1.21863 -4.06124 1.15057
thorax 2.15932 -2.06944 4.57662
lowerneck -21.5901 -2.89841 -12.0911
upperneck 25.698 -3.436 11.9992
head 12.5403 -1.1502 6.13884
rclavicle 1.78037e-014 -1.55052e-014
rhumerus -47.1216 13.8387 -88.991
rradius 32.9807
rwrist -15.8771
rhand -23.1962 -29.1943
rfingers 7.12502
rthumb 3.25359 -59.1492
lclavicle 1.78037e-014 -1.55052e-014
lhumerus -9.93997 -22.8989 87.5754
lradius 34.0213
lwrist 8.35919
lhand -16.1474 -25.5762
lfingers 7.12502
lthumb 10.058 4.16345
rfemur -37.1855 0.302186 15.3302
rtibia 32.3683
rfoot -16.2721 -8.34976
rtoes -10.0789
lfemur 8.03681 2.72071 -28.0455
ltibia 3.18055e-015
lfoot -11.9679 -1.96097
ltoes -5.06224
113
root 9.44227 16.6252 -9.58634 6.82545 6.56349 4.23779
lowerback -5.44924 -3.31952 -6.43492
upperback -1.05189 -4.07497 1.01907
thorax 2.48615 -2.08874 4.33893
lowerneck -21.9439 -2.96579 -11.8122
upperneck 25.6763 -3.58232 11.9628
head 12.6205 -1.18275 6.05425
rclavicle -1.27968e-014 -3.97569e-015
rhumerus -47.1311 12.8094 -88.6636
rradius 32.4574
rwrist -15.5091
rhand -24.6103 -24.7182
rfingers 7.12502
rthumb 1.88798 -54.6896
lclavicle -1.27968e-014 -3.97569e-015
lhumerus -8.68486 -23.6646 86.7597
lradius 34.9318
lwrist 9.12182
lhand -16.5043 -25.4316
lfingers 7.12502
lthumb 9.71365 4.32443
rfemur -37.7933 1.98776 14.4325
rtibia 30.4066
rfoot -16.9604 -9.44594
rtoes -11.6435
lfemur 8.61423 2.8026 -27.8434
ltibia -2.54444e-014
lfoot -12.4255 -2.11974
ltoes -5.97332
114
root 9.44009 16.6052 -9.3753 6.92436 6.67731 4.39061
lowerback -5.70213 -3.36843 -6.51
upperback -1.03473 -4.1152 0.947652
thorax 2.65035 -2.1141 4.28795
lowerneck -21.7103 -2.93328 -11.782
upperneck 25.4514 -3.56056 11.9783
head 12.4795 -1.17116 6.04216
rclavicle 1.81267e-014 3.97569e-015
rhumerus -47.5285 12.0089 -88.3093
rradius 32.1895
rwrist -15.6202
rhand -25.3711 -24.6215
rfingers 7.12502
rthumb 1.15311 -54.5982
lclavicle 1.81267e-014 3.97569e-015
lhumerus -7.89388 -23.707 86.3929
lradius 35.6958
lwrist 8.89937
lhand -16.5937 -25.8974
lfingers 7.12502
lthumb 9.62732 3.86258
rfemur -38.5278 3.92297 13.1503
rtibia 28.8968
rfoot -17.8211 -10.7811
rtoes -9.85279
lfemur 9.32324 2.8657 -27.8133
ltibia 1.27222e-014
lfoot -12.9548 -2.38643
ltoes -4.2341
115
root 9.43684 16.5866 -9.16492 7.02377 6.76135 4.3982
lowerback -5.82765 -3.53388 -6.62358
upperback -1.17377 -4.32728 1.09448
thorax 2.62198 -2.21714 4.48079
lowerneck -21.3527 -2.75295 -11.9209
upperneck 25.3922 -3.29761 12.0166
head 12.3458 -1.07106 6.11662
rclavicle -3.885e-014 -1.23246e-014
rhumerus -48.1817 12.0428 -88.1539
rradius 31.831
rwrist -15.5463
rhand -25.8553 -25.0979
rfingers 7.12502
rthumb 0.685534 -55.0766
lclavicle -3.885e-014 -1.23246e-014
lhumerus -7.36546 -23.244 86.2668
lradius 36.2625
lwrist 8.51301
lhand -17.225 -26.6523
lfingers 7.12502
lthumb 9.01823 3.13494
rfemur -39.4073 6.1961 11.8142
rtibia 27.8266
rfoot -19.1907 -12.4318
rtoes -10.8664
lfemur 10.0722 2.96852 -27.6232
ltibia -1.27222e-014
lfoot -13.4633 -2.60336
ltoes -3.14472
116
root 9.42765 16.5722 -8.95281 7.10419 6.85048 4.53717
lowerback -5.90019 -3.70775 -6.87845
upperback -1.22148 -4.54088 1.16195
thorax 2.66536 -2.32625 4.669
lowerneck -21.6052 -2.69313 -11.9639
upperneck 25.7017 -3.1926 12.0261
head 12.5045 -1.02527 6.16785
rclavicle 4.39438e-014 -7.95139e-016
rhumerus -48.5805 12.2101 -88.3172
rradius 31.1782
rwrist -16.2287
rhand -27.6236 -25.532
rfingers 7.12502
rthumb -1.02234 -55.5093
lclavicle 4.39438e-014 -7.95139e-016
lhumerus -6.6409 -22.8959 85.9099
lradius 36.9142
lwrist 8.8777
lhand -17.6076 -27.0427
lfingers 7.12502
lthumb 8.64903 2.76017
rfemur -40.3258 5.82633 11.5394
rtibia 27.1454
rfoot -19.8998 -11.1928
rtoes -16.4749
lfemur 10.8453 3.05377 -27.5719
ltibia 4.13472e-014
lfoot -13.8186 -2.71595
ltoes -4.80681
117
root 9.4235 16.5499 -8.73312 7.25105 6.85565 4.99502
lowerback -6.18059 -3.72289 -7.16817
upperback -1.13662 -4.5114 0.931383
thorax 2.90983 -2.32242 4.57294
lowerneck -22.1647 -2.83336 -11.8678
upperneck 26.0453 -3.38522 12.0027
head 12.7849 -1.09529 6.13935
rclavicle -3.24267e-014 -1.31198e-014
rhumerus -48.8994 11.8907 -88.6936
rradius 30.834
rwrist -17.6405
rhand -29.8421 -26.1495
rfingers 7.12502
rthumb -3.16501 -56.1058
lclavicle -3.24267e-014 -1.31198e-014
lhumerus -5.74953 -22.8094 85.4616
lradius 37.6012
lwrist 9.7944
lhand -16.9487 -27.2274
lfingers 7.12502
lthumb 9.28486 2.54811
rfemur -41.3653 5.45975 10.9262
rtibia 26.7214
rfoot -20.3631 -9.46524
rtoes -19.5002
lfemur 11.5663 3.18171 -27.9055
ltibia -3.18055e-015
lfoot -14.0828 -2.71077
ltoes -6.3913
118
root 9.42466 16.5273 -8.51733 7.3853 6.84775 5.44984
lowerback -6.5076 -3.72313 -7.4119
upperback -1.00327 -4.45685 0.709573
thorax 3.22518 -2.30978 4.45843
lowerneck -22.4731 -2.94331 -11.8949
upperneck 26.1032 -3.52828 12.0835
head 12.8969 -1.14425 6.16184
rclavicle -3.13583e-014 -1.03368e-014
rhumerus -49.4391 11.4903 -88.7107
rradius 31.2681
rwrist -17.6507
rhand -29.4514 -26.8726
rfingers 7.12502
rthumb -2.78765 -56.8341
lclavicle -3.13583e-014 -1.03368e-014
lhumerus -4.86047 -23.0634 84.9896
lradius 38.2861
lwrist 10.8918
lhand -16.6208 -27.0635
lfingers 7.12502
lthumb 9.60121 2.6977
rfemur -42.2476 5.11518 10.3692
rtibia 26.4473
rfoot -20.6207 -7.80556
rtoes -19.2534
lfemur 12.2617 3.32247 -28.2432
ltibia 0
lfoot -14.2721 -2.74001
ltoes -7.04427
119
root 9.42259 16.5082 -8.3021 7.35804 6.94855 5.50848
lowerback -6.60355 -3.8438 -7.48397
upperback -0.895526 -4.6022 0.751852
thorax 3.42047 -2.39279 4.51562
lowerneck -22.5878 -2.87596 -11.8492
upperneck 25.9708 -3.40982 12.0377
head 12.8464 -1.08848 6.14873
rclavicle -6.94752e-014 -1.94809e-014
rhumerus -50.0513 11.5814 -88.5485
rradius 31.7619
rwrist -17.2327
rhand -28.2572 -27.7799
rfingers 7.12502
rthumb -1.6343 -57.7534
lclavicle -6.94752e-014 -1.94809e-014
lhumerus -4.19562 -22.8558 84.5734
lradius 38.9275
lwrist 11.0547
lhand -17.2593 -26.8335
lfingers 7.12502
lthumb 8.98515 2.95518
rfemur -42.7134 4.81208 10.355
rtibia 26.3509
rfoot -21.114 -6.6135
rtoes -20.0637
lfemur 13.0955 3.41033 -28.0782
ltibia -3.18055e-014
lfoot -14.2956 -3.10165
ltoes -7.00738
120
root 9.41292 16.486 -8.08339 7.30414 7.04842 5.21817
lowerback -6.54879 -3.98026 -7.2743
upperback -0.977736 -4.8121 0.92249
thorax 3.33017 -2.49084 4.55886
lowerneck -22.5097 -2.7425 -11.6887
upperneck 26.0021 -3.22118 11.8196
head 12.8058 -1.01923 6.06309
rclavicle -6.02566e-014 -2.38542e-015
rhumerus -50.4462 11.521 -88.4827
rradius 31.1438
rwrist -17.8403
rhand -29.4268 -26.6784
rfingers 7.12502
rthumb -2.76388 -56.6402
lclavicle -6.02566e-014 -2.38542e-015
lhumerus -3.98627 -22.2254 84.4284
lradius 39.4223
lwrist 10.6479
lhand -18.3355 -26.4845
lfingers 7.12502
lthumb 7.94656 3.3461
rfemur -42.9347 4.65054 10.8271
rtibia 26.3903
rfoot -21.2705 -6.08814
rtoes -21.684
lfemur 13.9749 3.52631 -27.4864
ltibia 3.18055e-015
lfoot -14.1036 -3.50694
ltoes -7.61897
121
root 9.40423 16.462 -7.86533 7.39788 6.89365 5.45001
lowerback -6.55118 -3.98442 -7.44463
upperback -1.17539 -4.80951 0.867893
thorax 3.13348 -2.47883 4.60493
lowerneck -22.057 -2.66298 -11.8164
upperneck 25.9229 -3.14191 11.9401
head 12.6731 -0.991266 6.13592
rclavicle 5.27028e-014 -3.18055e-015
rhumerus -50.4635 10.119 -87.4227
rradius 29.7162
rwrist -16.4166
rhand -29.2504 -25.1007
rfingers 7.12502
rthumb -2.59355 -55.0647
lclavicle 5.27028e-014 -3.18055e-015
lhumerus -4.0172 -22.0838 84.4806
lradius 40.0798
lwrist 11.0787
lhand -18.7535 -25.9474
lfingers 7.12502
lthumb 7.54308 3.89808
rfemur -43.1296 4.61178 10.7134
rtibia 26.4615
rfoot -20.9509 -5.9731
rtoes -22.6488
lfemur 14.727 3.81856 -27.5003
ltibia 1.59028e-014
lfoot -13.832 -3.75396
ltoes -8.88408
122
root 9.39676 16.4421 -7.65324 7.50214 6.5499 6.01044
lowerback -6.53492 -3.96709 -8.02214
upperback -1.2528 -4.74695 0.775365
thorax 3.07304 -2.44862 4.84155
lowerneck -21.9116 -2.5492 -11.9866
upperneck 25.7555 -2.98639 12.1632
head 12.5588 -0.911583 6.27035
rclavicle -1.12935e-014 -3.93594e-014
rhumerus -50.2183 8.42973 -85.592
rradius 28.4938
rwrist -13.0484
rhand -24.8868 -27.702
rfingers 7.12502
rthumb 1.6209 -57.6756
lclavicle -1.12935e-014 -3.93594e-014
lhumerus -3.81758 -22.0034 84.45
lradius 40.837
lwrist 11.9391
lhand -18.6431 -25.7434
lfingers 7.12502
lthumb 7.64966 4.09822
rfemur -43.3901 4.67928 10.2145
rtibia 26.9121
rfoot -20.5755 -5.74313
rtoes -22.5408
lfemur 15.4421 4.25853 -27.8886
ltibia 2.54444e-014
lfoot -13.6813 -3.99037
ltoes -9.97425
